<svg width="16" height="16" viewBox="0 0 16 16" fill="none" xmlns="http://www.w3.org/2000/svg">
<path d="M1.3335 3.99998C1.7335 4.33331 2.1335 4.66665 3.00016 4.66665C4.66683 4.66665 4.66683 3.33331 6.3335 3.33331C8.06683 3.33331 7.9335 4.66665 9.66683 4.66665C11.3335 4.66665 11.3335 3.33331 13.0002 3.33331C13.8668 3.33331 14.2668 3.66665 14.6668 3.99998" stroke="#3B82F6" stroke-width="1.33333" stroke-linecap="round" stroke-linejoin="round"/>
<path d="M1.3335 7.99998C1.7335 8.33331 2.1335 8.66665 3.00016 8.66665C4.66683 8.66665 4.66683 7.33331 6.3335 7.33331C8.06683 7.33331 7.9335 8.66665 9.66683 8.66665C11.3335 8.66665 11.3335 7.33331 13.0002 7.33331C13.8668 7.33331 14.2668 7.66665 14.6668 7.99998" stroke="#3B82F6" stroke-width="1.33333" stroke-linecap="round" stroke-linejoin="round"/>
<path d="M1.3335 12C1.7335 12.3333 2.1335 12.6666 3.00016 12.6666C4.66683 12.6666 4.66683 11.3333 6.3335 11.3333C8.06683 11.3333 7.9335 12.6666 9.66683 12.6666C11.3335 12.6666 11.3335 11.3333 13.0002 11.3333C13.8668 11.3333 14.2668 11.6666 14.6668 12" stroke="#3B82F6" stroke-width="1.33333" stroke-linecap="round" stroke-linejoin="round"/>
</svg>
